<?xml version="1.0" encoding="UTF-8" standalone="no"?>
<!-- Created with Inkscape (http://www.inkscape.org/) -->

<svg
   xmlns:osb="http://www.openswatchbook.org/uri/2009/osb"
   xmlns:dc="http://purl.org/dc/elements/1.1/"
   xmlns:cc="http://creativecommons.org/ns#"
   xmlns:rdf="http://www.w3.org/1999/02/22-rdf-syntax-ns#"
   xmlns:svg="http://www.w3.org/2000/svg"
   xmlns="http://www.w3.org/2000/svg"
   xmlns:sodipodi="http://sodipodi.sourceforge.net/DTD/sodipodi-0.dtd"
   xmlns:inkscape="http://www.inkscape.org/namespaces/inkscape"
   width="86.353867"
   height="86.353867"
   id="svg2"
   version="1.1"
   inkscape:version="0.48.5 r10040"
   sodipodi:docname="help_2.svg">
  <defs
     id="defs4">
    <linearGradient
       id="linearGradient4509"
       osb:paint="solid">
      <stop
         style="stop-color:#df0000;stop-opacity:1;"
         offset="0"
         id="stop4511" />
    </linearGradient>
    <linearGradient
       id="linearGradient4043"
       osb:paint="solid">
      <stop
         style="stop-color:#000000;stop-opacity:1;"
         offset="0"
         id="stop4045" />
    </linearGradient>
    <inkscape:path-effect
       effect="skeletal"
       id="path-effect4062"
       is_visible="true"
       pattern="M 0,0 0,10 10,5 z"
       copytype="single_stretched"
       prop_scale="1"
       scale_y_rel="false"
       spacing="0"
       normal_offset="0"
       tang_offset="0"
       prop_units="false"
       vertical_pattern="false"
       fuse_tolerance="0" />
    <inkscape:path-effect
       id="path-effect4062-9"
       effect="skeletal"
       is_visible="true"
       pattern="M 0,0 1,0"
       copytype="single_stretched"
       prop_scale="1"
       scale_y_rel="false"
       spacing="0"
       normal_offset="0"
       tang_offset="0"
       prop_units="false"
       vertical_pattern="false"
       fuse_tolerance="0" />
    <linearGradient
       id="linearGradient4043-4">
      <stop
         offset="0"
         style="stop-color:#000000;stop-opacity:1"
         id="stop4045-8" />
    </linearGradient>
    <linearGradient
       id="linearGradient4509-4">
      <stop
         offset="0"
         style="stop-color:#df0000;stop-opacity:1"
         id="stop4511-5" />
    </linearGradient>
  </defs>
  <sodipodi:namedview
     id="base"
     pagecolor="#bebebe"
     bordercolor="#666666"
     borderopacity="1.0"
     inkscape:pageopacity="0"
     inkscape:pageshadow="2"
     inkscape:zoom="0.9899495"
     inkscape:cx="74.842094"
     inkscape:cy="153.02871"
     inkscape:document-units="px"
     inkscape:current-layer="layer1"
     showgrid="false"
     inkscape:snap-bbox="false"
     inkscape:bbox-nodes="false"
     inkscape:snap-bbox-edge-midpoints="true"
     inkscape:snap-bbox-midpoints="true"
     inkscape:snap-nodes="true"
     inkscape:snap-global="true"
     inkscape:bbox-paths="false"
     inkscape:object-nodes="true"
     inkscape:window-width="1280"
     inkscape:window-height="705"
     inkscape:window-x="0"
     inkscape:window-y="0"
     inkscape:window-maximized="1"
     inkscape:snap-to-guides="false"
     inkscape:snap-object-midpoints="true"
     fit-margin-top="0"
     fit-margin-left="0"
     fit-margin-right="0"
     fit-margin-bottom="0">
    <inkscape:grid
       type="xygrid"
       id="grid3785"
       empspacing="5"
       visible="true"
       enabled="true"
       snapvisiblegridlinesonly="true"
       originx="-333.76351px"
       originy="-140.30698px" />
  </sodipodi:namedview>
  <metadata
     id="metadata7">
    <rdf:RDF>
      <cc:Work
         rdf:about="">
        <dc:format>image/svg+xml</dc:format>
        <dc:type
           rdf:resource="http://purl.org/dc/dcmitype/StillImage" />
        <dc:title></dc:title>
      </cc:Work>
    </rdf:RDF>
  </metadata>
  <g
     inkscape:label="Layer 1"
     inkscape:groupmode="layer"
     id="layer1"
     transform="translate(-333.76351,-825.70134)">
    <g
       id="g3970"
       transform="matrix(0.7595134,-0.31460075,0.31460075,0.7595134,-199.87889,405.08957)">
      <path
         d="m 482.8529,789.72253 c 0,27.8946 -22.61303,50.50763 -50.50762,50.50763 -27.8946,0 -50.50763,-22.61303 -50.50763,-50.50763 0,-27.89459 22.61303,-50.50762 50.50763,-50.50762 27.89459,0 50.50762,22.61303 50.50762,50.50762 z"
         sodipodi:ry="50.507626"
         sodipodi:rx="50.507626"
         sodipodi:cy="789.72253"
         sodipodi:cx="432.34528"
         id="path3936"
         style="fill:none;stroke:#000000;stroke-width:4;stroke-linecap:round;stroke-linejoin:round;stroke-miterlimit:4;stroke-opacity:1;stroke-dasharray:none"
         sodipodi:type="arc" />
      <path
         transform="matrix(0.60561677,0,0,0.60561677,170.50973,311.45332)"
         sodipodi:type="arc"
         style="fill:none;stroke:#000000;stroke-width:6.60483694;stroke-linecap:round;stroke-linejoin:round;stroke-miterlimit:4;stroke-opacity:1;stroke-dasharray:none"
         id="path3938"
         sodipodi:cx="432.34528"
         sodipodi:cy="789.72253"
         sodipodi:rx="50.507626"
         sodipodi:ry="50.507626"
         d="m 482.8529,789.72253 c 0,27.8946 -22.61303,50.50763 -50.50762,50.50763 -27.8946,0 -50.50763,-22.61303 -50.50763,-50.50763 0,-27.89459 22.61303,-50.50762 50.50763,-50.50762 27.89459,0 50.50762,22.61303 50.50762,50.50762 z" />
      <path
         inkscape:connector-curvature="0"
         id="path3962"
         d="m 404.17966,760.47321 -5.33658,-5.3455 0.87676,-0.94672 c 2.55674,-2.76074 10.30007,-7.60221 15.07511,-9.42562 4.87156,-1.86028 11.31567,-3.22238 15.24507,-3.22238 l 1.80659,0 0,7.65287 0,7.65288 -2.05357,0.22299 c -7.09139,0.77003 -12.65902,2.95896 -17.84948,7.01757 -1.22346,0.95667 -2.27011,1.73941 -2.32589,1.73941 -0.0558,0 -2.50288,-2.40548 -5.43801,-5.3455 z"
         style="fill:#000000;fill-opacity:1;stroke:#000000;stroke-width:1.42857146;stroke-linecap:round;stroke-linejoin:round;stroke-miterlimit:4;stroke-opacity:1;stroke-dasharray:none" />
      <path
         inkscape:connector-curvature="0"
         id="path3964"
         d="m 464.93803,786.60742 c -0.54861,-5.90289 -3.22964,-12.61855 -6.82363,-17.09241 l -1.96519,-2.4463 5.43798,-5.4641 5.43799,-5.4641 1.19801,1.35695 c 6.82883,7.73482 11.39164,17.97444 12.03178,27.00111 0.11417,1.61 0.28099,3.28888 0.3707,3.73085 l 0.16312,0.80357 -7.81266,0 -7.81266,0 -0.22544,-2.42557 z"
         style="fill:#000000;fill-opacity:1;stroke:#000000;stroke-width:1.42857146;stroke-linecap:round;stroke-linejoin:round;stroke-miterlimit:4;stroke-opacity:1;stroke-dasharray:none" />
      <path
         inkscape:connector-curvature="0"
         id="path3966"
         d="m 432.91804,830.3212 c 0,-8.52635 -0.14738,-8.07178 2.61849,-8.07643 4.97684,-0.008 14.79985,-4.16769 18.07425,-7.65313 0.47319,-0.50369 1.03523,-0.91579 1.24898,-0.91579 0.21375,0 2.79734,2.42117 5.74131,5.38038 l 5.35268,5.38039 -1.25,1.08894 c -5.27149,4.59226 -12.70466,8.74572 -18.73935,10.47106 -3.71614,1.06246 -8.91266,1.96144 -11.34993,1.96351 l -1.69643,10e-4 0,-7.64036 z"
         style="fill:#000000;fill-opacity:1;stroke:#000000;stroke-width:1.42857146;stroke-linecap:round;stroke-linejoin:round;stroke-miterlimit:4;stroke-opacity:1;stroke-dasharray:none" />
      <path
         inkscape:connector-curvature="0"
         id="path3968"
         d="m 396.16435,821.66318 c -6.51513,-7.40158 -10.73645,-17.05513 -11.80271,-26.99111 -0.2047,-1.90744 -0.37217,-3.63512 -0.37217,-3.83929 0,-0.24554 2.64237,-0.37122 7.80473,-0.37122 l 7.80474,0 0.21978,2.59998 c 0.47655,5.63754 3.27422,12.50415 7.00467,17.19227 l 1.76786,2.22169 -5.45922,5.4507 -5.45922,5.45069 -1.50846,-1.71371 0,0 z"
         style="fill:#000000;fill-opacity:1;stroke:#000000;stroke-width:1.42857146;stroke-linecap:round;stroke-linejoin:round;stroke-miterlimit:4;stroke-opacity:1;stroke-dasharray:none" />
    </g>
    <path
       style="fill:#ffffff;fill-opacity:1;stroke:none"
       d="m 366.38708,841.8405 c -0.3915,-1.02973 -1.38631,-3.44012 -2.21068,-5.35642 -0.82437,-1.91631 -1.30347,-3.80033 -1.06467,-4.18671 0.63559,-1.02841 9.7588,-2.95631 13.98985,-2.95631 4.04495,0 13.34377,1.91092 13.93225,2.8631 0.20712,0.33512 -0.5646,2.96195 -1.71494,5.83739 -1.62933,4.0728 -2.38163,5.18675 -3.40441,5.04102 -0.72209,-0.10288 -2.99728,-0.48731 -5.05597,-0.85428 -3.41725,-0.60914 -11.48207,0.0769 -13.17036,1.12028 -0.32408,0.20029 -0.90956,-0.47833 -1.30107,-1.50807 l 0,0 z"
       id="path4351"
       inkscape:connector-curvature="0" />
    <path
       style="fill:#ffffff;fill-opacity:1;stroke:none"
       d="m 338.90999,879.21821 c -1.6029,-5.71272 -1.60083,-14.76326 0.005,-20.48534 1.38959,-4.95246 0.86356,-4.82774 7.99454,-1.89546 4.00385,1.6464 4.11137,1.76183 3.78484,4.06338 -0.53136,3.74532 -0.38556,13.58623 0.23625,15.94535 0.56054,2.12668 0.51284,2.17085 -4.82062,4.46429 -2.96272,1.27399 -5.51635,2.31635 -5.67475,2.31635 -0.15839,0 -0.84463,-1.98386 -1.52497,-4.40857 z"
       id="path4353"
       inkscape:connector-curvature="0" />
    <path
       style="fill:#ffffff;fill-opacity:1;stroke:none"
       d="m 371.03015,907.8943 c -1.96428,-0.35186 -4.73998,-1.05422 -6.16821,-1.56078 l -2.59679,-0.92103 2.23965,-5.54269 c 2.22191,-5.49883 2.2566,-5.5384 4.3825,-5 2.08524,0.5281 13.34069,0.58139 16.64767,0.0788 1.4541,-0.22099 1.89433,0.37894 3.74737,5.10674 1.15484,2.94643 2.10089,5.42505 2.10233,5.50804 10e-4,0.083 -1.59374,0.62497 -3.54486,1.20439 -4.71974,1.40161 -12.40048,1.91635 -16.80966,1.12652 z"
       id="path4355"
       inkscape:connector-curvature="0" />
    <path
       style="fill:#ffffff;fill-opacity:1;stroke:none"
       d="m 407.60756,881.28157 c -4.33076,-1.69935 -5.46809,-2.43415 -5.1266,-3.31217 1.85169,-4.76091 1.85877,-13.26327 0.0149,-17.94561 -0.33114,-0.84092 0.8634,-1.64468 5.02739,-3.38274 3.00395,-1.25386 5.72014,-2.12004 6.03597,-1.92485 0.96139,0.59418 2.82803,10.01157 2.82803,14.26772 0,4.05586 -1.85246,13.67522 -2.73404,14.19715 -0.26413,0.15638 -2.9847,-0.69839 -6.0457,-1.8995 z"
       id="path4357"
       inkscape:connector-curvature="0" />
  </g>
</svg>
